# xmcd
#
# Track frame offsets:
#	150
#	14020
#	30010
#	41952
#	53865
#	70097
#	89410
#	102735
#	114642
#	125175
#
# Disc length: 1883 seconds
#
# Revision: 0
# Processed by: cddbd v1.5.2PL0 Copyright (c) Steve Scherf et al.
# Submitted via: EasyCDDAExtractor 4.6.0.1
#
DISCID=8e07590a
DTITLE=Billy Hoffman - New Style
DYEAR=1997
DGENRE=Country
TTITLE0=Found A Way
TTITLE1=She's Gone
TTITLE2=New Style
TTITLE3=Long Night In Tulsa
TTITLE4=Can't Have It All
TTITLE5=Just In My Mind
TTITLE6=Do A Little Time
TTITLE7=Mama Never Told Me
TTITLE8=Big Dawg
TTITLE9=Will She Remember
EXTD=
EXTT0=
EXTT1=
EXTT2=
EXTT3=
EXTT4=
EXTT5=
EXTT6=
EXTT7=
EXTT8=
EXTT9=
PLAYORDER=
